HIERARCHY
ROOT Hips
{
  OFFSET 1.44925e-005 102.336 -0.101585
  CHANNELS 6 Xposition Yposition Zposition Zrotation Xrotation Yrotation
  JOINT LeftUpLeg
  {
    OFFSET 8.9458 -8.66707 0.101652
    CHANNELS 3 Zrotation Xrotation Yrotation
    JOINT LeftLeg
    {
      OFFSET 0 -44.4227 1.3727
      CHANNELS 3 Zrotation Xrotation Yrotation
      JOINT LeftFoot
      {
        OFFSET -0.253549 -42.0924 -1.46059
        CHANNELS 3 Zrotation Xrotation Yrotation
        JOINT LeftToes
        {
          OFFSET -0.04 -4.41509 8.4991
          CHANNELS 3 Zrotation Xrotation Yrotation
          End Site
          {
            OFFSET 0.08 -0.047448 9.77979
          }
        }
      }
    }
  }
  JOINT Spine
  {
    OFFSET 0 11.8905 0
    CHANNELS 3 Zrotation Xrotation Yrotation
    JOINT Spine1
    {
      OFFSET 0 25.6574 0.127663
      CHANNELS 3 Zrotation Xrotation Yrotation
      JOINT RightShoulder
      {
        OFFSET -8.99 -0.362252 -0.22
        CHANNELS 3 Zrotation Xrotation Yrotation
        JOINT RightArm
        {
          OFFSET -10.2827 -0.00338 0.322123
          CHANNELS 3 Zrotation Xrotation Yrotation
          JOINT RightForeArm
          {
            OFFSET -26.364 0.099144 -1.42434
            CHANNELS 3 Zrotation Xrotation Yrotation
            JOINT RightHand
            {
              OFFSET -22.0324 0.085362 1.02216
              CHANNELS 3 Zrotation Xrotation Yrotation
              End Site
              {
                OFFSET -13.3284 -0.6 1.50291
              }
            }
          }
        }
      }
      JOINT LeftShoulder1
      {
        OFFSET 8.99 -0.362252 -0.22
        CHANNELS 3 Zrotation Xrotation Yrotation
        JOINT LeftArm
        {
          OFFSET 10.2827 -0.00337999 0.322123
          CHANNELS 3 Zrotation Xrotation Yrotation
          JOINT LeftForeArm
          {
            OFFSET 26.2597 0.099144 -1.42434
            CHANNELS 3 Zrotation Xrotation Yrotation
            JOINT LeftHand
            {
              OFFSET 22.0902 0.085362 1.02216
              CHANNELS 3 Zrotation Xrotation Yrotation
              End Site
              {
                OFFSET 13.419 -0.6 1.50291
              }
            }
          }
        }
      }
      JOINT Head
      {
        OFFSET 0 8.73416 0.011341
        CHANNELS 3 Zrotation Xrotation Yrotation
        End Site
        {
          OFFSET -0.29 12.7742 2.51395
        }
      }
    }
  }
  JOINT RightUpLeg
  {
    OFFSET -8.9458 -8.66707 0.101652
    CHANNELS 3 Zrotation Xrotation Yrotation
    JOINT RightLeg
    {
      OFFSET 0 -44.4227 1.3727
      CHANNELS 3 Zrotation Xrotation Yrotation
      JOINT RightFoot
      {
        OFFSET 0.253549 -42.0924 -1.46059
        CHANNELS 3 Zrotation Xrotation Yrotation
        JOINT RightToes
        {
          OFFSET 0.04 -4.41509 8.4991
          CHANNELS 3 Zrotation Xrotation Yrotation
          End Site
          {
            OFFSET -0.08 -0.137448 9.77979
          }
        }
      }
    }
  }
}
MOTION
Frames:	14
Frame Time:	0.0333333
118.997 8.21842 7.80823 -93.9114 4.08742 -93.5825 -1.17042 0.463559 0.952912 0.776953 8.19196 18.4446 -0.282679 18.6817 -0.06917 -1.35366e-009 8.75215e-006 -1.47098e-008 15.1436 -3.15099 2.53831 -14.6616 13.9927 6.2881 27.5638 1.46066 0.193756 55.2369 -24.5361 1.97485 13.339 57.8316 -4.78603 1.98654 9.97808 -1.74908 -30.7622 2.39086 -2.99478 -37.9926 -13.0333 -6.64598 -22.4629 61.853 8.55872 5.82328 9.61819 -0.917488 4.40631 -25.0661 -6.65853 0.0530894 -0.399419 -3.76556 1.10477 10.2552 -10.979 10.2094 14.8531 -2.02402 0.0462048 0.000530889 0.662642 
119.006 8.22823 7.80335 -93.86 4.04987 -93.5599 -1.19212 0.42133 0.943145 0.756665 8.15158 18.4778 -0.261518 18.7476 -0.0691969 -1.35366e-009 8.75215e-006 -1.47098e-008 15.0886 -3.26639 2.5386 -14.6429 14.06 6.28656 27.5731 1.46066 0.193756 55.2429 -24.559 1.99634 13.3552 57.7693 -4.83083 1.18306 9.95407 -1.68487 -30.7319 2.39086 -2.99478 -38.0421 -13.1163 -6.6733 -22.5521 61.8827 8.68084 5.82328 9.61819 -0.917488 4.39524 -25.1156 -6.65454 0.0171763 -0.454294 -3.78936 1.11496 10.2581 -11.0545 10.1756 14.8614 -2.02409 0.0462048 0.000530889 0.662642 
119.015 8.24604 7.79369 -93.7904 3.99617 -93.5103 -1.22486 0.367344 0.920432 0.735259 8.09833 18.4912 -0.262535 18.8316 -0.0677574 -1.35366e-009 8.75215e-006 -1.47098e-008 14.9799 -3.43705 2.53709 -14.5721 14.1553 6.26413 27.5995 1.46066 0.193756 55.2376 -24.6158 2.01894 13.3843 57.7856 -4.92003 0.443163 9.93174 -1.60708 -30.7058 2.39086 -2.99478 -38.0971 -13.2377 -6.68838 -22.6672 61.8745 8.84536 5.82328 9.61819 -0.917488 4.39566 -25.182 -6.6331 -0.0332987 -0.523991 -3.82061 1.12346 10.2696 -11.1544 10.2128 14.843 -2.02554 0.0462048 0.000530889 0.662642 
119.017 8.26081 7.78433 -93.7628 3.95041 -93.4634 -1.26102 0.359248 0.893029 0.727057 8.05818 18.4906 -0.298195 18.8756 -0.0602521 -1.35366e-009 8.75215e-006 -1.47098e-008 14.8546 -3.53998 2.53067 -14.4627 14.2217 6.22734 27.5975 1.46066 0.193756 55.2243 -24.6328 2.02249 13.3836 57.766 -4.93725 0.410631 9.92818 -1.65867 -30.7092 2.39086 -2.99478 -38.1133 -13.2876 -6.67447 -22.6959 61.8374 8.89365 5.82328 9.61819 -0.917488 4.38451 -25.259 -6.60867 -0.0727672 -0.556417 -3.84825 1.11802 10.3008 -11.1667 10.2223 14.8063 -2.02441 0.0462048 0.000530889 0.662642 
119.017 8.2695 7.77999 -93.7471 3.918 -93.4405 -1.29137 0.362303 0.867215 0.724648 8.0261 18.5101 -0.352163 18.8972 -0.0478714 -1.35366e-009 8.75215e-006 -1.47098e-008 14.7747 -3.61529 2.53206 -14.3922 14.2899 6.2128 27.565 1.46066 0.193756 55.23 -24.5773 2.02524 13.3611 57.6291 -4.87234 0.649908 9.92484 -1.80161 -30.7168 2.39086 -2.99478 -38.1122 -13.2581 -6.67807 -22.663 61.8314 8.84824 5.82328 9.61819 -0.917488 4.36029 -25.352 -6.60118 -0.0944591 -0.5853 -3.86401 1.10649 10.3359 -11.0953 10.1099 14.7868 -2.00075 0.0462048 0.000530889 0.662642 
119.016 8.27825 7.77741 -93.7002 3.89045 -93.4205 -1.31161 0.329766 0.840241 0.719564 7.99094 18.5315 -0.396595 18.9357 -0.0377183 -1.35366e-009 8.75215e-006 -1.47098e-008 14.7418 -3.74798 2.54735 -14.3812 14.3986 6.22516 27.5659 1.46066 0.193756 55.2335 -24.5187 2.04544 13.3575 57.5371 -4.83091 0.639183 9.92221 -1.84464 -30.7017 2.39086 -2.99478 -38.1303 -13.2538 -6.72758 -22.6823 61.856 8.86924 5.82328 9.61819 -0.917488 4.35671 -25.4437 -6.60922 -0.113472 -0.646677 -3.8786 1.10774 10.3665 -11.0296 10.0243 14.7604 -1.98181 0.0462048 0.000530889 0.662642 
119.014 8.28856 7.77086 -93.6433 3.85594 -93.3827 -1.33321 0.281047 0.808857 0.713355 7.95962 18.5342 -0.401373 18.9824 -0.0367341 -1.35366e-009 8.75215e-006 -1.47098e-008 14.6934 -3.90015 2.55759 -14.3665 14.507 6.23012 27.6182 1.46066 0.19349 55.2094 -24.5152 2.06783 13.3682 57.5957 -4.84566 0.47076 9.92051 -1.7524 -30.6773 2.39086 -2.99478 -38.1552 -13.3221 -6.78093 -22.7654 61.853 8.98541 5.82328 9.61819 -0.917488 4.37434 -25.5203 -6.62169 -0.147401 -0.716692 -3.90975 1.1224 10.4058 -11.0046 10.086 14.6912 -1.98828 0.0462048 0.000530889 0.662642 
119.012 8.29328 7.76177 -93.6265 3.82097 -93.3502 -1.35886 0.265548 0.786978 0.708967 7.94845 18.543 -0.373786 19.0038 -0.0431089 -1.35366e-009 8.75215e-006 -1.47098e-008 14.6122 -3.96138 2.55184 -14.3128 14.5488 6.2122 27.6526 1.46066 0.192504 55.1859 -24.5333 2.07392 13.3602 57.6567 -4.84681 0.473058 9.91877 -1.70407 -30.6746 2.39086 -2.99478 -38.1554 -13.3512 -6.78717 -22.7812 61.7801 9.01689 5.82328 9.61819 -0.917488 4.37416 -25.5964 -6.63631 -0.181069 -0.744891 -3.94023 1.12572 10.4437 -10.9808 10.1503 14.6295 -1.99582 0.0462048 0.000530889 0.662642 
119.012 8.29166 7.75713 -93.6538 3.79575 -93.3541 -1.38292 0.301532 0.780865 0.705078 7.93379 18.5918 -0.358284 19.0122 -0.0475453 -1.35366e-009 8.75215e-006 -1.47098e-008 14.5445 -3.92495 2.5447 -14.257 14.5381 6.19717 27.6325 1.46066 0.191838 55.193 -24.5382 2.07607 13.3423 57.5976 -4.82561 0.609884 9.91661 -1.77707 -30.6953 2.39086 -2.99478 -38.1199 -13.2518 -6.76072 -22.6756 61.6615 8.87498 5.82328 9.61819 -0.917488 4.34818 -25.6896 -6.65561 -0.197346 -0.735972 -3.94925 1.10456 10.4778 -10.9368 10.0924 14.6285 -1.98446 0.0462048 0.000530889 0.662642 
119.015 8.29638 7.75603 -93.658 3.77183 -93.3706 -1.40729 0.338762 0.764674 0.70045 7.87513 18.6604 -0.363476 19.0369 -0.0509653 -1.35366e-009 8.75215e-006 -1.47098e-008 14.5054 -3.93783 2.55448 -14.2197 14.5592 6.20325 27.6187 1.46066 0.191415 55.1997 -24.5584 2.08784 13.3468 57.5191 -4.84633 0.658784 9.91467 -1.8422 -30.7105 2.39086 -2.99478 -38.0909 -13.1328 -6.75211 -22.5808 61.5724 8.73849 5.82328 9.61819 -0.917488 4.33803 -25.7843 -6.67976 -0.212357 -0.774514 -3.95519 1.08215 10.556 -10.9203 10.0731 14.6213 -1.9801 0.0462048 0.000530889 0.662642 
119.021 8.31345 7.74988 -93.6063 3.74819 -93.3512 -1.42444 0.327892 0.732396 0.695682 7.8017 18.6797 -0.354028 19.0467 -0.0529242 -1.35366e-009 8.75215e-006 -1.47098e-008 14.468 -4.0695 2.5737 -14.1806 14.6359 6.21249 27.6573 1.46066 0.191156 55.1702 -24.5953 2.09018 13.3621 57.5233 -4.8885 0.610797 9.91341 -1.81475 -30.7007 2.39086 -2.99478 -38.1 -13.1418 -6.77452 -22.6161 61.563 8.78257 5.82328 9.61819 -0.917488 4.36069 -25.8498 -6.70772 -0.233184 -0.874876 -3.97624 1.08409 10.6709 -10.978 10.2405 14.5284 -2.00502 0.0462048 0.000530889 0.662642 
119.027 8.32923 7.73784 -93.5505 3.71317 -93.3152 -1.44982 0.294764 0.696741 0.688697 7.75922 18.6545 -0.335095 19.0186 -0.0519001 -1.35366e-009 8.75215e-006 -1.47098e-008 14.3983 -4.19908 2.58883 -14.133 14.6973 6.21479 27.7031 1.46066 0.19098 55.1311 -24.5873 2.06787 13.3598 57.5609 -4.87129 0.563644 9.91248 -1.75876 -30.6774 2.39086 -2.99478 -38.1247 -13.2254 -6.799 -22.7057 61.5937 8.90703 5.82328 9.61819 -0.917488 4.37111 -25.8942 -6.73134 -0.268237 -0.953619 -4.01211 1.096 10.7464 -11.0317 10.4065 14.4038 -2.02684 0.0462048 0.000530889 0.662642 
119.031 8.3315 7.72747 -93.5455 3.67586 -93.3136 -1.47735 0.282639 0.685168 0.677646 7.76736 18.6257 -0.387881 18.9981 -0.0398962 -1.35366e-009 8.75215e-006 -1.47098e-008 14.3215 -4.21116 2.59601 -14.1019 14.696 6.21512 27.7118 1.46066 0.190807 55.1191 -24.531 2.04874 13.3599 57.605 -4.83126 0.496188 9.91174 -1.69915 -30.6676 2.39086 -2.99478 -38.1294 -13.2402 -6.80001 -22.7176 61.6001 8.92373 5.82328 9.61819 -0.917488 4.32907 -25.9429 -6.73053 -0.29923 -0.9314 -4.03224 1.09317 10.6954 -11.0073 10.2909 14.3954 -2.00377 0.0462048 0.000530889 0.662642 
119.037 8.32926 7.72276 -93.5703 3.63149 -93.3399 -1.51274 0.298309 0.677738 0.667332 7.77419 18.6384 -0.535779 19.0503 -0.00569873 -1.35366e-009 8.75215e-006 -1.47098e-008 14.2385 -4.16678 2.59721 -14.067 14.6707 6.21109 27.7098 1.46066 0.190556 55.1157 -24.5133 2.05657 13.3867 57.6971 -4.86537 0.402997 9.91133 -1.60134 -30.6826 2.39086 -2.99478 -38.1206 -13.205 -6.77705 -22.6746 61.6 8.86259 5.82328 9.61819 -0.917488 4.26215 -26.0081 -6.70185 -0.336935 -0.874109 -4.05057 1.08151 10.6075 -10.9239 9.97659 14.5007 -1.95163 0.0462048 0.000530889 0.662642 
